<svg width="360" height="360" viewBox="0 0 360 360" fill="none" xmlns="http://www.w3.org/2000/svg">
  <circle cx="180" cy="170" r="118" stroke="rgba(122,216,222,0.22)" stroke-width="3"/>
  <circle cx="180" cy="170" r="88" stroke="rgba(216,179,95,0.22)" stroke-width="2.5"/>
  <path d="M180 70C198 100 226 120 250 126C238 136 228 150 224 166C240 170 252 180 258 194C234 196 214 208 200 226C188 216 170 212 158 212C156 188 150 170 138 158C156 148 170 130 180 70Z" fill="url(#spirit)" stroke="#F5E8D1" stroke-width="3" stroke-linejoin="round"/>
  <circle cx="170" cy="160" r="7" fill="#0D1117"/>
  <circle cx="194" cy="160" r="7" fill="#0D1117"/>
  <path d="M168 184C176 190 184 190 192 184" stroke="#0D1117" stroke-width="3" stroke-linecap="round"/>
  <path d="M124 126C98 128 76 142 62 164" stroke="rgba(122,216,222,0.22)" stroke-width="3" stroke-linecap="round"/>
  <path d="M236 126C262 128 284 142 298 164" stroke="rgba(216,179,95,0.22)" stroke-width="3" stroke-linecap="round"/>
  <defs>
    <linearGradient id="spirit" x1="180" y1="70" x2="180" y2="226" gradientUnits="userSpaceOnUse">
      <stop stop-color="#F5E8D1"/>
      <stop offset="0.46" stop-color="#7AD8DE"/>
      <stop offset="1" stop-color="#23343E"/>
    </linearGradient>
  </defs>
</svg>
