<svg width="1600" height="960" viewBox="0 0 1600 960" fill="none" xmlns="http://www.w3.org/2000/svg">
  <rect width="1600" height="960" fill="#090810"/>
  <rect width="1600" height="960" fill="url(#sky)"/>
  <circle cx="1200" cy="220" r="124" fill="url(#moon)"/>
  <circle cx="1200" cy="220" r="178" stroke="rgba(122,216,222,0.18)" stroke-width="2"/>
  <circle cx="1200" cy="220" r="238" stroke="rgba(216,179,95,0.12)" stroke-width="1.5"/>
  <path d="M0 558L110 512L204 548L312 454L432 532L550 420L662 514L810 378L946 492L1092 354L1208 432L1318 336L1460 470L1600 394V960H0V558Z" fill="#11101B"/>
  <path d="M0 664L118 612L224 648L346 548L474 626L600 528L726 612L854 504L986 592L1124 470L1268 566L1394 486L1600 592V960H0V664Z" fill="#171525"/>
  <path d="M0 744L140 698L284 738L420 654L548 726L684 636L824 712L936 634L1098 724L1240 650L1386 734L1600 664V960H0V744Z" fill="#221E33"/>
  <path d="M420 640H472V462L516 414V640H556V364L612 294V640H656V412L710 360V640H760V960H420V640Z" fill="#0A0A12"/>
  <path d="M452 474H482M452 514H482M594 326H630M594 366H630M676 392H704" stroke="#D8B35F" stroke-opacity="0.18" stroke-width="6" stroke-linecap="round"/>
  <path d="M932 686H984V532L1032 472V686H1078V402L1138 326V686H1186V560L1242 502V686H1298V960H932V686Z" fill="#090911"/>
  <path d="M974 544H1006M1108 360H1160M1214 514H1248" stroke="#7AD8DE" stroke-opacity="0.18" stroke-width="6" stroke-linecap="round"/>
  <path d="M650 310L682 258L714 310" stroke="#D8B35F" stroke-opacity="0.25" stroke-width="4" stroke-linecap="round"/>
  <path d="M1128 342L1160 290L1192 342" stroke="#7AD8DE" stroke-opacity="0.22" stroke-width="4" stroke-linecap="round"/>
  <ellipse cx="512" cy="798" rx="334" ry="108" fill="url(#mist)"/>
  <ellipse cx="1184" cy="760" rx="386" ry="122" fill="url(#mist)"/>
  <ellipse cx="814" cy="870" rx="690" ry="154" fill="rgba(245,232,209,0.06)"/>
  <g opacity="0.58">
    <circle cx="292" cy="162" r="2" fill="#F6E8C9"/>
    <circle cx="384" cy="226" r="1.5" fill="#F6E8C9"/>
    <circle cx="516" cy="122" r="1.5" fill="#F6E8C9"/>
    <circle cx="792" cy="210" r="2" fill="#F6E8C9"/>
    <circle cx="988" cy="118" r="1.5" fill="#F6E8C9"/>
    <circle cx="1362" cy="180" r="1.5" fill="#F6E8C9"/>
    <circle cx="1454" cy="132" r="2" fill="#F6E8C9"/>
  </g>
  <g opacity="0.24">
    <path d="M258 250C290 212 336 196 380 196C426 196 470 214 504 250C470 286 426 304 380 304C336 304 290 286 258 250Z" stroke="#D8B35F" stroke-width="2"/>
    <path d="M380 196V304M326 224L434 278M434 224L326 278" stroke="#D8B35F" stroke-width="2"/>
  </g>
  <defs>
    <linearGradient id="sky" x1="800" y1="0" x2="800" y2="960" gradientUnits="userSpaceOnUse">
      <stop stop-color="#141327"/>
      <stop offset="0.46" stop-color="#0D0C17"/>
      <stop offset="1" stop-color="#050509"/>
    </linearGradient>
    <radialGradient id="moon" cx="0" cy="0" r="1" gradientUnits="userSpaceOnUse" gradientTransform="translate(1200 220) rotate(90) scale(124)">
      <stop stop-color="#F6E8C9" stop-opacity="0.92"/>
      <stop offset="0.42" stop-color="#D8B35F" stop-opacity="0.55"/>
      <stop offset="1" stop-color="#D8B35F" stop-opacity="0"/>
    </radialGradient>
    <radialGradient id="mist" cx="0" cy="0" r="1" gradientUnits="userSpaceOnUse" gradientTransform="translate(0 0) scale(1)">
      <stop stop-color="#E8DBC1" stop-opacity="0.16"/>
      <stop offset="1" stop-color="#E8DBC1" stop-opacity="0"/>
    </radialGradient>
  </defs>
</svg>
