<svg width="420" height="360" viewBox="0 0 420 360" fill="none" xmlns="http://www.w3.org/2000/svg">
  <ellipse cx="216" cy="314" rx="120" ry="24" fill="rgba(0,0,0,0.2)"/>
  <path d="M210 48L242 126L210 248L178 126L210 48Z" fill="url(#core)" stroke="#F5E8D1" stroke-width="3" stroke-linejoin="round"/>
  <path d="M134 124L170 166L148 258L106 192L134 124Z" fill="url(#left1)" stroke="#7AD8DE" stroke-width="3" stroke-linejoin="round"/>
  <path d="M286 124L314 192L272 258L250 166L286 124Z" fill="url(#right1)" stroke="#7AD8DE" stroke-width="3" stroke-linejoin="round"/>
  <path d="M86 180L118 214L106 286L70 240L86 180Z" fill="url(#left2)" stroke="#D8B35F" stroke-width="2.8" stroke-linejoin="round"/>
  <path d="M334 180L350 240L314 286L302 214L334 180Z" fill="url(#right2)" stroke="#D8B35F" stroke-width="2.8" stroke-linejoin="round"/>
  <path d="M190 136L210 92L230 136" stroke="#F5E8D1" stroke-opacity="0.4" stroke-width="3" stroke-linecap="round"/>
  <circle cx="210" cy="170" r="116" stroke="rgba(122,216,222,0.18)" stroke-width="3"/>
  <circle cx="210" cy="170" r="86" stroke="rgba(216,179,95,0.22)" stroke-width="2.6"/>
  <path d="M210 12L220 40L248 50L220 60L210 88L200 60L172 50L200 40L210 12Z" fill="rgba(245,232,209,0.16)" stroke="#F5E8D1" stroke-width="3" stroke-linejoin="round"/>
  <defs>
    <linearGradient id="core" x1="210" y1="48" x2="210" y2="248" gradientUnits="userSpaceOnUse">
      <stop stop-color="#F5E8D1"/>
      <stop offset="0.28" stop-color="#7AD8DE"/>
      <stop offset="1" stop-color="#13303D"/>
    </linearGradient>
    <linearGradient id="left1" x1="138" y1="124" x2="138" y2="258" gradientUnits="userSpaceOnUse">
      <stop stop-color="#A5EFF3"/>
      <stop offset="1" stop-color="#163843"/>
    </linearGradient>
    <linearGradient id="right1" x1="282" y1="124" x2="282" y2="258" gradientUnits="userSpaceOnUse">
      <stop stop-color="#A5EFF3"/>
      <stop offset="1" stop-color="#163843"/>
    </linearGradient>
    <linearGradient id="left2" x1="94" y1="180" x2="94" y2="286" gradientUnits="userSpaceOnUse">
      <stop stop-color="#F0D28E"/>
      <stop offset="1" stop-color="#47361E"/>
    </linearGradient>
    <linearGradient id="right2" x1="326" y1="180" x2="326" y2="286" gradientUnits="userSpaceOnUse">
      <stop stop-color="#F0D28E"/>
      <stop offset="1" stop-color="#47361E"/>
    </linearGradient>
  </defs>
</svg>
