<svg width="280" height="280" viewBox="0 0 280 280" fill="none" xmlns="http://www.w3.org/2000/svg">
  <rect width="280" height="280" fill="#221B16"/>
  <rect width="280" height="280" fill="url(#paper)"/>
  <g opacity="0.28">
    <circle cx="38" cy="44" r="10" fill="#F3E5C6"/>
    <circle cx="190" cy="28" r="6" fill="#F3E5C6"/>
    <circle cx="232" cy="84" r="9" fill="#D7B97D"/>
    <circle cx="74" cy="186" r="8" fill="#D7B97D"/>
    <circle cx="248" cy="212" r="7" fill="#F3E5C6"/>
  </g>
  <g opacity="0.12" stroke="#4A3B2A" stroke-width="2">
    <path d="M18 96C62 86 92 90 138 108C184 126 214 126 264 108"/>
    <path d="M12 150C54 166 92 170 142 152C192 134 226 138 270 160"/>
    <path d="M26 230C64 214 102 212 154 230C206 248 232 248 268 236"/>
  </g>
  <g opacity="0.08" stroke="#F8EDD8" stroke-width="1.5">
    <path d="M0 42H280"/>
    <path d="M0 116H280"/>
    <path d="M0 188H280"/>
    <path d="M0 254H280"/>
    <path d="M36 0V280"/>
    <path d="M118 0V280"/>
    <path d="M196 0V280"/>
  </g>
  <defs>
    <linearGradient id="paper" x1="28" y1="16" x2="252" y2="264" gradientUnits="userSpaceOnUse">
      <stop stop-color="#3B2E23"/>
      <stop offset="0.5" stop-color="#241C16"/>
      <stop offset="1" stop-color="#120F0D"/>
    </linearGradient>
  </defs>
</svg>
