<svg width="180" height="180" viewBox="0 0 180 180" fill="none" xmlns="http://www.w3.org/2000/svg">
  <circle cx="90" cy="90" r="78" fill="#171116" stroke="#D8B35F" stroke-width="4"/>
  <circle cx="90" cy="90" r="58" stroke="rgba(122,216,222,0.22)" stroke-width="3"/>
  <path d="M90 136C70 120 56 104 56 84C56 70 66 60 80 60C86 60 92 62 96 66L102 72L108 66C112 62 118 60 124 60C138 60 148 70 148 84C148 104 134 120 114 136L102 146L90 136Z" fill="url(#heart)" stroke="#F5E8D1" stroke-width="3" stroke-linejoin="round"/>
  <path d="M68 100H82L92 84L102 112L112 96H126" stroke="#7AD8DE" stroke-width="4" stroke-linecap="round" stroke-linejoin="round"/>
  <defs>
    <linearGradient id="heart" x1="102" y1="60" x2="102" y2="146" gradientUnits="userSpaceOnUse">
      <stop stop-color="#3E2B3A"/>
      <stop offset="1" stop-color="#1F1620"/>
    </linearGradient>
  </defs>
</svg>
