<svg width="960" height="620" viewBox="0 0 960 620" fill="none" xmlns="http://www.w3.org/2000/svg">
  <rect width="960" height="620" rx="40" fill="#1A130E"/>
  <rect x="26" y="26" width="908" height="568" rx="30" fill="url(#wood)" stroke="#5A412E" stroke-width="4"/>
  <rect x="82" y="82" width="286" height="186" rx="18" fill="url(#paper)" stroke="rgba(245,232,209,0.3)" stroke-width="3"/>
  <rect x="406" y="72" width="224" height="220" rx="18" fill="url(#paper)" stroke="rgba(245,232,209,0.28)" stroke-width="3"/>
  <rect x="666" y="96" width="212" height="176" rx="18" fill="url(#paper)" stroke="rgba(245,232,209,0.28)" stroke-width="3"/>
  <rect x="120" y="324" width="256" height="200" rx="18" fill="url(#paperDark)" stroke="rgba(245,232,209,0.22)" stroke-width="3"/>
  <rect x="426" y="338" width="414" height="170" rx="18" fill="url(#paperDark)" stroke="rgba(245,232,209,0.22)" stroke-width="3"/>
  <circle cx="150" cy="112" r="12" fill="#D8B35F"/>
  <circle cx="508" cy="104" r="12" fill="#7AD8DE"/>
  <circle cx="812" cy="124" r="12" fill="#D8B35F"/>
  <circle cx="176" cy="354" r="12" fill="#7AD8DE"/>
  <circle cx="792" cy="370" r="12" fill="#D8B35F"/>
  <path d="M112 132H324M112 160H332M112 188H286M112 222H246" stroke="#594635" stroke-width="7" stroke-linecap="round"/>
  <path d="M438 118H592M438 148H610M438 178H566M438 210H520" stroke="#594635" stroke-width="7" stroke-linecap="round"/>
  <path d="M698 136H834M698 164H846M698 194H804" stroke="#594635" stroke-width="7" stroke-linecap="round"/>
  <path d="M150 382H340M150 412H312M150 444H330M150 476H274" stroke="#4A3B2A" stroke-width="7" stroke-linecap="round"/>
  <path d="M456 372H796M456 404H772M456 436H808M456 468H694" stroke="#4A3B2A" stroke-width="7" stroke-linecap="round"/>
  <path d="M738 404L770 450L824 458L786 492L794 542L738 514L682 542L690 492L652 458L706 450L738 404Z" fill="rgba(216,179,95,0.18)" stroke="#D8B35F" stroke-width="4" stroke-linejoin="round"/>
  <circle cx="514" cy="432" r="56" stroke="rgba(122,216,222,0.28)" stroke-width="4"/>
  <circle cx="514" cy="432" r="34" stroke="rgba(216,179,95,0.32)" stroke-width="3"/>
  <path d="M514 390L524 420L554 430L524 440L514 470L504 440L474 430L504 420L514 390Z" fill="rgba(245,232,209,0.2)" stroke="#F5E8D1" stroke-width="3" stroke-linejoin="round"/>
  <defs>
    <linearGradient id="wood" x1="138" y1="58" x2="812" y2="562" gradientUnits="userSpaceOnUse">
      <stop stop-color="#4A3121"/>
      <stop offset="0.5" stop-color="#2A1D14"/>
      <stop offset="1" stop-color="#1A120D"/>
    </linearGradient>
    <linearGradient id="paper" x1="112" y1="98" x2="820" y2="540" gradientUnits="userSpaceOnUse">
      <stop stop-color="#413224"/>
      <stop offset="1" stop-color="#241A14"/>
    </linearGradient>
    <linearGradient id="paperDark" x1="120" y1="324" x2="840" y2="510" gradientUnits="userSpaceOnUse">
      <stop stop-color="#30231B"/>
      <stop offset="1" stop-color="#1A1410"/>
    </linearGradient>
  </defs>
</svg>
