<svg width="540" height="540" viewBox="0 0 540 540" fill="none" xmlns="http://www.w3.org/2000/svg">
  <circle cx="270" cy="270" r="248" stroke="rgba(216,179,95,0.28)" stroke-width="4"/>
  <circle cx="270" cy="270" r="212" stroke="rgba(122,216,222,0.24)" stroke-width="3"/>
  <circle cx="270" cy="270" r="170" stroke="rgba(245,232,209,0.16)" stroke-width="2.6"/>
  <circle cx="270" cy="270" r="126" stroke="rgba(216,179,95,0.24)" stroke-width="2.2"/>
  <path d="M270 52L286 100L334 116L286 132L270 180L254 132L206 116L254 100L270 52Z" fill="rgba(245,232,209,0.12)" stroke="#F5E8D1" stroke-width="3" stroke-linejoin="round"/>
  <path d="M270 360L292 414L346 436L292 458L270 512L248 458L194 436L248 414L270 360Z" fill="rgba(216,179,95,0.12)" stroke="#D8B35F" stroke-width="3" stroke-linejoin="round"/>
  <path d="M104 188L118 222L152 236L118 250L104 284L90 250L56 236L90 222L104 188Z" fill="rgba(122,216,222,0.14)" stroke="#7AD8DE" stroke-width="3" stroke-linejoin="round"/>
  <path d="M436 188L450 222L484 236L450 250L436 284L422 250L388 236L422 222L436 188Z" fill="rgba(122,216,222,0.14)" stroke="#7AD8DE" stroke-width="3" stroke-linejoin="round"/>
  <path d="M188 270C220 224 318 224 352 270C318 316 220 316 188 270Z" stroke="#D8B35F" stroke-width="3"/>
  <path d="M270 224V316M228 246L312 294M312 246L228 294" stroke="#7AD8DE" stroke-width="2.8"/>
  <path d="M150 126C190 102 234 88 270 88C306 88 350 102 390 126" stroke="rgba(216,179,95,0.22)" stroke-width="3" stroke-linecap="round"/>
  <path d="M150 414C190 438 234 452 270 452C306 452 350 438 390 414" stroke="rgba(122,216,222,0.22)" stroke-width="3" stroke-linecap="round"/>
  <path d="M126 150L112 164L126 178L140 164L126 150Z" fill="#D8B35F" fill-opacity="0.25"/>
  <path d="M414 150L400 164L414 178L428 164L414 150Z" fill="#7AD8DE" fill-opacity="0.25"/>
</svg>
