<svg width="620" height="860" viewBox="0 0 620 860" fill="none" xmlns="http://www.w3.org/2000/svg">
  <ellipse cx="310" cy="780" rx="172" ry="34" fill="rgba(0,0,0,0.26)"/>
  <circle cx="310" cy="706" r="122" stroke="rgba(216,179,95,0.22)" stroke-width="4"/>
  <circle cx="310" cy="706" r="88" stroke="rgba(122,216,222,0.26)" stroke-width="3"/>
  <path d="M214 790C244 744 272 702 282 622H338C348 702 376 744 406 790H214Z" fill="url(#boots)"/>
  <path d="M256 560C252 658 236 730 212 790H272C286 742 300 696 304 618L256 560Z" fill="#0B1017"/>
  <path d="M364 560C368 658 384 730 408 790H348C334 742 320 696 316 618L364 560Z" fill="#0B1017"/>
  <path d="M232 356C228 504 246 560 310 618C374 560 392 504 388 356H232Z" fill="url(#cloakFront)"/>
  <path d="M222 304C220 444 190 592 164 716L220 726C244 638 276 564 310 530C344 564 376 638 400 726L456 716C430 592 400 444 398 304H222Z" fill="url(#cape)"/>
  <path d="M214 294C244 256 272 238 310 230C348 238 376 256 406 294L382 334C362 312 344 302 310 296C276 302 258 312 238 334L214 294Z" fill="url(#mantle)"/>
  <path d="M256 280L280 350L270 470H350L340 350L364 280L310 240L256 280Z" fill="url(#armor)"/>
  <path d="M286 320L310 346L334 320L326 440H294L286 320Z" fill="#0C1015"/>
  <path d="M288 470L274 564L310 602L346 564L332 470H288Z" fill="url(#waist)"/>
  <path d="M230 360L196 510L244 524L278 398L230 360Z" fill="url(#arm)" stroke="#7AD8DE" stroke-opacity="0.14" stroke-width="2"/>
  <path d="M390 360L424 510L376 524L342 398L390 360Z" fill="url(#arm)" stroke="#7AD8DE" stroke-opacity="0.14" stroke-width="2"/>
  <path d="M184 492L138 628L184 640L220 528L184 492Z" fill="#121A22"/>
  <path d="M436 492L482 628L436 640L400 528L436 492Z" fill="#121A22"/>
  <circle cx="310" cy="194" r="62" fill="url(#headGlow)"/>
  <path d="M248 198C252 154 278 126 310 126C342 126 368 154 372 198C372 242 350 284 310 300C270 284 248 242 248 198Z" fill="url(#hood)"/>
  <path d="M282 176C288 156 298 146 310 146C322 146 332 156 338 176V228C330 246 320 258 310 266C300 258 290 246 282 228V176Z" fill="url(#faceMask)"/>
  <path d="M274 170C282 148 294 136 310 136C326 136 338 148 346 170" stroke="#7AD8DE" stroke-opacity="0.18" stroke-width="3" stroke-linecap="round"/>
  <path d="M306 300L296 344L324 344L314 300H306Z" fill="#D8B35F"/>
  <path d="M264 510L310 536L356 510" stroke="#D8B35F" stroke-width="4" stroke-linecap="round"/>
  <path d="M420 198L452 130L478 142L452 214L420 198Z" fill="#1A1F2A"/>
  <path d="M452 130L486 74L500 82L478 142L452 130Z" fill="url(#blade)"/>
  <path d="M398 216L420 198L452 214L432 234L398 216Z" fill="#D8B35F"/>
  <circle cx="310" cy="414" r="24" fill="url(#core)"/>
  <circle cx="310" cy="414" r="46" stroke="rgba(122,216,222,0.22)" stroke-width="3"/>
  <path d="M310 392L316 408L332 414L316 420L310 436L304 420L288 414L304 408L310 392Z" fill="#F5E8D1"/>
  <path d="M194 676L310 640L426 676" stroke="rgba(245,232,209,0.14)" stroke-width="6" stroke-linecap="round"/>
  <defs>
    <linearGradient id="cape" x1="310" y1="304" x2="310" y2="726" gradientUnits="userSpaceOnUse">
      <stop stop-color="#181E2A"/>
      <stop offset="0.42" stop-color="#101621"/>
      <stop offset="1" stop-color="#06090E"/>
    </linearGradient>
    <linearGradient id="cloakFront" x1="310" y1="356" x2="310" y2="618" gradientUnits="userSpaceOnUse">
      <stop stop-color="#26384A"/>
      <stop offset="0.48" stop-color="#12202C"/>
      <stop offset="1" stop-color="#0A121B"/>
    </linearGradient>
    <linearGradient id="mantle" x1="310" y1="230" x2="310" y2="334" gradientUnits="userSpaceOnUse">
      <stop stop-color="#2D4152"/>
      <stop offset="1" stop-color="#1A2430"/>
    </linearGradient>
    <linearGradient id="armor" x1="310" y1="240" x2="310" y2="470" gradientUnits="userSpaceOnUse">
      <stop stop-color="#F5E8D1"/>
      <stop offset="0.26" stop-color="#D8B35F"/>
      <stop offset="0.66" stop-color="#3F5965"/>
      <stop offset="1" stop-color="#121A22"/>
    </linearGradient>
    <linearGradient id="waist" x1="310" y1="470" x2="310" y2="602" gradientUnits="userSpaceOnUse">
      <stop stop-color="#18303B"/>
      <stop offset="1" stop-color="#0A1016"/>
    </linearGradient>
    <linearGradient id="arm" x1="310" y1="360" x2="310" y2="524" gradientUnits="userSpaceOnUse">
      <stop stop-color="#D8B35F"/>
      <stop offset="1" stop-color="#13202A"/>
    </linearGradient>
    <linearGradient id="hood" x1="310" y1="126" x2="310" y2="300" gradientUnits="userSpaceOnUse">
      <stop stop-color="#22303E"/>
      <stop offset="1" stop-color="#111822"/>
    </linearGradient>
    <radialGradient id="headGlow" cx="0" cy="0" r="1" gradientUnits="userSpaceOnUse" gradientTransform="translate(310 194) rotate(90) scale(62)">
      <stop stop-color="#7AD8DE" stop-opacity="0.28"/>
      <stop offset="1" stop-color="#7AD8DE" stop-opacity="0"/>
    </radialGradient>
    <linearGradient id="faceMask" x1="310" y1="146" x2="310" y2="266" gradientUnits="userSpaceOnUse">
      <stop stop-color="#F5E8D1"/>
      <stop offset="1" stop-color="#C7B59A"/>
    </linearGradient>
    <linearGradient id="blade" x1="476" y1="74" x2="466" y2="148" gradientUnits="userSpaceOnUse">
      <stop stop-color="#F5E8D1"/>
      <stop offset="0.34" stop-color="#7AD8DE"/>
      <stop offset="1" stop-color="#132432"/>
    </linearGradient>
    <radialGradient id="core" cx="0" cy="0" r="1" gradientUnits="userSpaceOnUse" gradientTransform="translate(310 414) rotate(90) scale(24)">
      <stop stop-color="#F5E8D1"/>
      <stop offset="0.4" stop-color="#7AD8DE"/>
      <stop offset="1" stop-color="#7AD8DE" stop-opacity="0.05"/>
    </radialGradient>
    <linearGradient id="boots" x1="310" y1="622" x2="310" y2="790" gradientUnits="userSpaceOnUse">
      <stop stop-color="#13202A"/>
      <stop offset="1" stop-color="#05080D"/>
    </linearGradient>
  </defs>
</svg>
