<svg width="960" height="680" viewBox="0 0 960 680" fill="none" xmlns="http://www.w3.org/2000/svg">
  <rect width="960" height="680" rx="44" fill="#1A1512"/>
  <rect width="960" height="680" rx="44" fill="url(#paper)"/>
  <path d="M176 180C220 132 302 120 360 154C406 180 434 250 398 308C364 364 282 376 232 336C178 294 150 224 176 180Z" fill="rgba(245,232,209,0.14)" stroke="#D8B35F" stroke-opacity="0.44" stroke-width="3"/>
  <path d="M512 128C584 92 682 102 734 160C786 218 798 302 746 350C696 396 606 386 550 350C486 308 452 218 512 128Z" fill="rgba(245,232,209,0.12)" stroke="#D8B35F" stroke-opacity="0.38" stroke-width="3"/>
  <path d="M394 418C438 378 502 366 562 388C630 414 672 478 646 534C620 590 548 614 476 598C414 584 362 538 360 484C358 456 372 438 394 418Z" fill="rgba(245,232,209,0.12)" stroke="#D8B35F" stroke-opacity="0.36" stroke-width="3"/>
  <path d="M172 466C208 430 266 422 314 440C362 458 392 510 370 554C346 602 284 618 228 598C174 578 146 520 172 466Z" fill="rgba(245,232,209,0.1)" stroke="#D8B35F" stroke-opacity="0.32" stroke-width="3"/>
  <path d="M262 222C304 224 346 240 372 266" stroke="#7AD8DE" stroke-opacity="0.44" stroke-width="3" stroke-dasharray="10 10" stroke-linecap="round"/>
  <path d="M560 214C610 210 658 226 696 260" stroke="#7AD8DE" stroke-opacity="0.4" stroke-width="3" stroke-dasharray="10 10" stroke-linecap="round"/>
  <path d="M438 480C490 456 546 454 596 474" stroke="#7AD8DE" stroke-opacity="0.38" stroke-width="3" stroke-dasharray="10 10" stroke-linecap="round"/>
  <path d="M302 514C354 504 404 486 444 450" stroke="#7AD8DE" stroke-opacity="0.3" stroke-width="3" stroke-dasharray="10 10" stroke-linecap="round"/>
  <circle cx="372" cy="268" r="12" fill="#D8B35F" fill-opacity="0.24" stroke="#F0D28E" stroke-width="3"/>
  <circle cx="696" cy="260" r="12" fill="#7AD8DE" fill-opacity="0.22" stroke="#7AD8DE" stroke-width="3"/>
  <circle cx="444" cy="450" r="12" fill="#D8B35F" fill-opacity="0.24" stroke="#F0D28E" stroke-width="3"/>
  <circle cx="278" cy="514" r="10" fill="#7AD8DE" fill-opacity="0.18" stroke="#7AD8DE" stroke-width="3"/>
  <path d="M768 474L792 528L846 552L792 576L768 628L744 576L690 552L744 528L768 474Z" fill="rgba(216,179,95,0.14)" stroke="#D8B35F" stroke-width="4" stroke-linejoin="round"/>
  <path d="M116 124L132 160L166 176L132 192L116 228L100 192L66 176L100 160L116 124Z" fill="rgba(122,216,222,0.14)" stroke="#7AD8DE" stroke-width="3.5" stroke-linejoin="round"/>
  <path d="M784 112L792 136L816 144L792 152L784 176L776 152L752 144L776 136L784 112Z" fill="rgba(245,232,209,0.14)" stroke="#F5E8D1" stroke-width="3" stroke-linejoin="round"/>
  <path d="M120 548C182 528 244 528 306 548" stroke="rgba(74,59,42,0.42)" stroke-width="4" stroke-linecap="round"/>
  <path d="M462 154C528 138 588 142 650 172" stroke="rgba(74,59,42,0.34)" stroke-width="4" stroke-linecap="round"/>
  <g opacity="0.4">
    <path d="M120 84V160" stroke="#4A3B2A" stroke-width="4" stroke-linecap="round"/>
    <path d="M82 122H158" stroke="#4A3B2A" stroke-width="4" stroke-linecap="round"/>
    <path d="M120 94L132 122L120 150L108 122L120 94Z" fill="#D8B35F" fill-opacity="0.18"/>
  </g>
  <defs>
    <linearGradient id="paper" x1="110" y1="56" x2="792" y2="640" gradientUnits="userSpaceOnUse">
      <stop stop-color="#34291F"/>
      <stop offset="0.48" stop-color="#201915"/>
      <stop offset="1" stop-color="#120F0D"/>
    </linearGradient>
  </defs>
</svg>
